<svg width="214" height="88" viewBox="0 0 214 88" fill="none" xmlns="http://www.w3.org/2000/svg">
<path d="M161.033 18.6406C124.158 11.2656 83.4227 11.7156 47.2717 23.2839C34.339 27.4224 21.354 39.1289 26.6211 54.1987C32.0698 69.7882 53.0826 76.7775 67.1891 80.348C98.289 88.2197 132.899 87.8461 163.721 78.7595C173.965 75.7397 185.032 70.7418 193.781 64.4629C200.438 59.6855 211.961 49.994 212.415 40.6353C212.699 34.7878 208.32 32.1883 203.923 29.4547C190.144 20.8892 173.145 15.9384 157.612 11.92C123.163 3.00808 84.4325 -1.94473 49.2878 5.93253C37.6993 8.52996 30.4303 11.36 20.7558 17.8463C11.3723 24.1375 8.21038 31.237 1.57153 39.5356" stroke="black" stroke-width="2.69981" stroke-linecap="round"/>
</svg>
