<svg width="463" height="236" viewBox="0 0 463 236" fill="none" xmlns="http://www.w3.org/2000/svg">
<path d="M309.943 38.799C287.627 41.458 240.505 56.6753 250.938 87.4821C258.273 109.14 292.482 109.826 310.946 106.398C334.532 102.019 350.256 81.4896 340.524 58.2623C331.585 36.9305 308.866 32.446 288.286 28.9429" stroke="black" stroke-width="6" stroke-linecap="round"/>
<path d="M299.697 112.943C297.757 132.445 298.605 152.378 298.83 171.943C299.019 188.355 302.451 204.642 302.451 220.943" stroke="black" stroke-width="6" stroke-linecap="round"/>
<path d="M297.451 159.943C314.986 156.385 349.451 146.943 349.451 146.943" stroke="black" stroke-width="6" stroke-linecap="round"/>
<path d="M333.963 123.613C333.963 137.903 333.449 152.428 334.857 166.672C335.521 173.396 344.962 167.871 348.361 166.623C350.491 165.841 364.181 163.202 364.447 160.366C364.539 159.387 363.079 153.852 363.057 153.764C361.405 147.143 359.697 140.54 358.291 133.86C357.931 132.151 357.621 119.314 354.021 119.967C347.348 121.178 341.212 125.331 334.559 126.963C330.195 128.033 325.776 128.65 321.451 129.82" stroke="black" stroke-width="6" stroke-linecap="round"/>
<path d="M364.451 120.943C368.961 112.292 374.814 103.951 378.451 94.9429" stroke="black" stroke-width="6" stroke-linecap="round"/>
<path d="M379.451 138.943C391.935 146.093 405.572 153.298 416.451 162.943" stroke="black" stroke-width="6" stroke-linecap="round"/>
<path d="M403.451 79.9429C405.49 98.8201 407.003 117.813 412.007 136.147C412.977 139.702 413.433 143.485 414.044 147.111C414.257 148.376 414.451 151.985 414.451 148.395" stroke="black" stroke-width="6" stroke-linecap="round"/>
<path d="M401.451 72.8223C415.122 70.4181 428.184 69.242 441.991 69.242C444.509 69.242 450.403 67.9204 451.494 70.8332C453.726 76.7917 453.035 83.7935 453.516 90.0277C454.038 96.7946 455.579 103.432 455.942 110.217C456.467 120.032 457.531 129.953 457.863 139.754C457.885 140.397 457.625 141.558 457.964 142.141C458.092 142.36 460.031 143.052 459.278 143.335C455.967 144.576 450.475 143.533 447.046 143.533C442.578 143.533 437.454 144.157 433.448 141.793C429.218 139.296 422.677 143.533 417.829 143.533" stroke="black" stroke-width="6" stroke-linecap="round"/>
<path d="M414.451 89.5545C415.497 89.7482 417.065 90.464 416.201 88.7261C416.119 88.5614 415.07 86.3001 414.725 87.1223C413.806 89.3133 416.095 91.5764 416.095 88.2855" stroke="black" stroke-width="6" stroke-linecap="round"/>
<path d="M419.077 112.943C418.997 112.002 418.973 111.486 418.822 110.585C418.741 110.1 418.269 109.408 418.528 109.157C418.825 108.87 419.326 110.579 419.421 110.021C419.616 108.863 418.791 107.379 419.254 108.161" stroke="black" stroke-width="6" stroke-linecap="round"/>
<path d="M422.128 129.741C418.999 129.9 421.182 131.118 421.319 130.921C421.764 130.281 422.104 129.608 422.451 128.943C422.456 128.934 422.286 129.188 422.128 129.188" stroke="black" stroke-width="6" stroke-linecap="round"/>
<path d="M423.451 87.9429C424.814 87.5741 426.09 87.2396 427.264 86.4845C427.544 86.3046 428.042 85.7384 428.454 85.6929C429.485 85.579 430.694 86.7061 431.535 87.0818C434.336 88.3325 436.219 87.7652 438.917 86.804C439.449 86.6145 440.038 86.711 440.595 86.6929C442.115 86.6434 443.652 86.2808 445.17 86.1373C445.979 86.0608 448.691 85.5207 446.787 84.9429" stroke="black" stroke-width="6" stroke-linecap="round"/>
<path d="M424.451 98.9429C428.407 96.7479 431.749 94.4156 436.263 95.4191C438.029 95.8116 440.094 95.5143 441.893 95.5143C442.264 95.5143 445.178 95.8748 444.28 94.9429" stroke="black" stroke-width="6" stroke-linecap="round"/>
<path d="M428.451 112.943C430.907 111.401 433.351 109.775 435.936 108.479C436.676 108.108 437.675 107.582 438.527 107.904C439.622 108.318 440.909 110 441.678 110.948C442.032 111.385 446.474 106.563 447.451 105.943" stroke="black" stroke-width="6" stroke-linecap="round"/>
<path d="M427.451 126.943C430.392 126.655 433.363 126.3 436.244 125.727C438.003 125.378 439.268 124.898 441.142 124.946C442.693 124.986 450.009 127.355 450.451 126.273" stroke="black" stroke-width="6" stroke-linecap="round"/>
<path d="M123.854 15.395C146.277 13.8964 221.867 33.8479 217.289 66.0496C214.071 88.6879 180.574 95.6658 161.795 95.699C137.805 95.7414 118.568 78.461 123.854 53.838C128.708 31.2245 150.212 22.6304 169.794 15.395" stroke="black" stroke-width="6" stroke-linecap="round"/>
<path d="M174.057 100.059C179.558 118.869 182.397 138.618 185.781 157.889C188.619 174.055 188.247 190.696 191.251 206.717" stroke="black" stroke-width="6" stroke-linecap="round"/>
<path d="M184.925 145.84C167.035 145.575 131.42 142.645 131.42 142.645" stroke="black" stroke-width="6" stroke-linecap="round"/>
<path d="M142.344 116.86C144.977 130.905 148.159 145.087 149.4 159.347C149.986 166.078 139.689 162.388 136.118 161.787C133.88 161.411 119.939 161.34 119.154 158.602C118.883 157.656 119.299 151.946 119.304 151.857C119.707 145.044 120.169 138.24 120.321 131.415C120.36 129.669 118.299 116.994 121.958 116.973C128.74 116.934 135.535 119.885 142.376 120.263C146.862 120.511 151.319 120.303 155.785 120.656" stroke="black" stroke-width="6" stroke-linecap="round"/>
<path d="M111.886 119.855C105.859 112.182 98.5698 105.063 93.3345 96.8796" stroke="black" stroke-width="6" stroke-linecap="round"/>
<path d="M100.459 140.31C89.5077 149.638 77.4318 159.233 68.5155 170.717" stroke="black" stroke-width="6" stroke-linecap="round"/>
<path d="M65.9985 86.7432C67.4737 105.673 69.4863 124.619 67.9462 143.561C67.6476 147.234 67.8962 151.036 67.9644 154.713C67.9882 155.995 68.462 159.578 67.8006 156.051" stroke="black" stroke-width="6" stroke-linecap="round"/>
<path d="M66.6524 79.376C52.7727 79.532 39.7175 80.783 26.1472 83.3271C23.6728 83.791 17.6356 83.5783 17.1001 86.6422C16.0048 92.9099 17.9735 99.6646 18.6498 105.881C19.3838 112.628 19.0917 119.435 19.9852 126.171C21.2777 135.915 22.0605 145.862 23.5401 155.557C23.6372 156.192 24.1061 157.286 23.8806 157.921C23.7958 158.16 22.0171 159.198 22.8088 159.336C26.2924 159.946 31.4977 157.91 34.8686 157.278C39.2602 156.455 44.4111 156.124 47.9125 153.062C51.6101 149.828 58.8202 152.787 63.5851 151.894" stroke="black" stroke-width="6" stroke-linecap="round"/>
<path d="M56.958 98.2168C55.966 98.5999 54.5567 99.5924 55.0855 97.725C55.1356 97.5481 55.7503 95.1321 56.2407 95.8767C57.5474 97.8609 55.7154 100.507 55.109 97.2723" stroke="black" stroke-width="6" stroke-linecap="round"/>
<path d="M56.721 122.057C56.6268 121.118 56.5551 120.606 56.5373 119.693C56.5277 119.201 56.8638 118.433 56.5635 118.235C56.218 118.007 56.0404 119.779 55.8451 119.248C55.4395 118.146 55.9767 116.536 55.6664 117.39" stroke="black" stroke-width="6" stroke-linecap="round"/>
<path d="M56.8181 139.13C59.9222 138.71 58.0013 140.31 57.8304 140.141C57.2751 139.594 56.8166 138.995 56.3532 138.405C56.3466 138.397 56.5607 138.616 56.7163 138.587" stroke="black" stroke-width="6" stroke-linecap="round"/>
<path d="M47.8153 98.2914C46.4073 98.1802 45.0925 98.0863 43.7988 97.5607C43.4905 97.4354 42.8971 96.9705 42.4836 97.0018C41.4489 97.0799 40.469 98.4103 39.7114 98.9346C37.1889 100.68 35.2331 100.47 32.4046 100.022C31.8469 99.9336 31.2859 100.137 30.7351 100.222C29.2314 100.453 27.6544 100.38 26.1355 100.519C25.326 100.593 22.5618 100.562 24.3263 99.6428" stroke="black" stroke-width="6" stroke-linecap="round"/>
<path d="M48.8594 109.287C44.567 107.859 40.8522 106.182 36.6006 108.001C34.9374 108.712 32.8524 108.8 31.0842 109.132C30.7197 109.2 27.9217 110.091 28.6329 109.01" stroke="black" stroke-width="6" stroke-linecap="round"/>
<path d="M47.5077 123.784C44.8094 122.721 42.1082 121.573 39.3284 120.776C38.5332 120.548 37.4544 120.215 36.676 120.689C35.6757 121.297 34.7208 123.187 34.1401 124.261C33.8721 124.756 28.6175 120.834 27.5431 120.405" stroke="black" stroke-width="6" stroke-linecap="round"/>
<path d="M51.0702 137.361C48.1265 137.62 45.1415 137.818 42.2045 137.786C40.4102 137.767 39.079 137.529 37.2462 137.921C35.729 138.246 28.9746 141.922 28.3406 140.941" stroke="black" stroke-width="6" stroke-linecap="round"/>
</svg>
