<svg width="259" height="254" viewBox="0 0 259 254" fill="none" xmlns="http://www.w3.org/2000/svg">
<path d="M42.0532 97.8291C27.3697 101.315 1.81789 105.921 3.04246 126.797C4.29886 148.216 36.0624 143.265 47.702 137.033C60.7537 130.045 69.8861 114.83 54.0268 105.168C46.6172 100.653 37.4087 100.436 29.0174 100.436" stroke="black" stroke-width="5" stroke-linecap="round"/>
<path d="M235.851 104.781C227.759 104.921 219.801 105.58 212.435 109.465C201.59 115.185 198.679 125.423 207.125 134.667C215.72 144.076 231.19 143.166 241.355 137.322C248.754 133.069 261.246 121.164 253.619 111.879C246.496 103.207 232.111 102.8 221.947 101.305" stroke="black" stroke-width="5" stroke-linecap="round"/>
<path d="M140.256 152.579C121.817 147.628 96.4232 143.684 85.6022 163.636C81.8714 170.514 81.1039 179.09 84.1538 186.376C89.1076 198.21 102.567 201.271 114.136 202.26C131.103 203.711 160.722 197.377 149.236 173.823C142.879 160.786 128.441 151.069 114.184 149.972" stroke="black" stroke-width="5" stroke-linecap="round"/>
<path d="M58.5653 13.5311C59.1471 33.9745 60.5172 54.673 59.6274 75.1371C59.584 76.1362 59.6524 77.7334 59.2412 78.7099C57.4221 83.0302 65.5367 83.0489 68.4628 83.4414C85.7006 85.7538 103.362 84.642 120.702 85.2278C137.375 85.7911 153.986 86.5314 170.673 86.5314C179.76 86.5314 189.076 85.8952 198.096 87.2073C202.62 87.8653 203.697 87.4611 203.697 82.5724C203.697 57.6126 201.09 32.8872 201.09 7.93058C201.09 7.00388 201.616 4.18019 200.414 4.01986C188.765 2.46665 175.872 3.16753 164.107 3.10252C139.468 2.9664 115.351 4.61595 90.8167 6.57873C77.2429 7.66463 63.4866 9.18588 49.8748 9.18588" stroke="black" stroke-width="5" stroke-linecap="round"/>
<path d="M122.728 85.9155V105.506" stroke="black" stroke-width="5" stroke-linecap="round"/>
<path d="M103.863 112.036C125.632 113.015 147.415 113.73 169.164 114.938" stroke="black" stroke-width="5" stroke-linecap="round"/>
<path d="M140.142 24.9682C141.751 36.0571 143.044 47.3638 143.044 58.586C143.044 64.1838 149.409 62.5806 154.048 62.6573C161.006 62.7723 167.97 62.6976 174.928 62.6976C176.167 62.6976 179.063 63.1514 180.37 62.5363C183.439 61.0922 178.621 44.0323 178.314 41.1725C177.973 37.9842 179.333 28.7035 176.42 26.0969C173.948 23.885 168.829 24.9682 165.778 24.9682C157.7 24.9682 149.659 24.5934 141.593 24.2427" stroke="black" stroke-width="5" stroke-linecap="round"/>
<path d="M148.123 32.9497C148.123 37.1213 146.538 40.3207 151.267 40.2054C152.79 40.1682 154.653 38.8532 154.653 37.2628C154.653 34.558 155.752 34.2232 153.202 33.3125C150.75 32.4369 146.563 34.4008 143.77 34.4008" stroke="black" stroke-width="5" stroke-linecap="round"/>
<path d="M166.987 34.4006C166.987 39.4481 167.016 41.8701 172.469 38.754C173.988 37.8862 174.034 33.9777 173.356 32.5464C173.12 32.048 168.267 34.216 167.713 34.4006" stroke="black" stroke-width="5" stroke-linecap="round"/>
<path d="M148.848 48.9123C149.001 49.7148 148.925 56.0033 149.735 56.7323C152.134 58.8913 155.676 54.9868 155.943 52.9433C156.251 50.5804 156.104 48.1461 156.104 45.7682C156.104 44.9387 155.857 47.8091 155.056 48.0255C152.083 48.829 148.329 48.1868 145.22 48.1868" stroke="black" stroke-width="5" stroke-linecap="round"/>
<path d="M69.0364 20.6148C71.8308 20.7658 82.0965 17.7399 82.0965 20.776C82.0965 22.6943 81.0993 29.9306 83.8701 25.7743C84.4182 24.9522 91.2689 16.6293 91.4886 18.2768C91.6654 19.6032 90.5219 25.6884 92.7785 25.4922C97.3393 25.0956 100.701 19.9765 105.798 20.776C107.535 21.0485 98.4701 25.6107 97.2125 25.9759C93.3753 27.0899 102.674 23.9852 103.702 23.8395C107.11 23.3565 110.588 23.517 114.021 23.517" stroke="black" stroke-width="5" stroke-linecap="round"/>
<path d="M83.5476 46.7353C96.5297 44.3622 106.949 44.3209 119.826 46.7353" stroke="black" stroke-width="5" stroke-linecap="round"/>
<path d="M71.9387 48.1869C80.8054 52.4356 72.7731 43.6262 71.2938 50.283C70.5542 53.6108 75.9554 49.6381 71.2131 49.6381" stroke="black" stroke-width="5" stroke-linecap="round"/>
<path d="M74.1152 64.8744C75.1805 63.6483 78.3272 59.9369 77.1787 61.0853C76.1732 62.0908 76.3843 62.6928 76.171 62.0528C75.8615 61.1243 74.1152 64.1488 74.1152 64.1488" stroke="black" stroke-width="5" stroke-linecap="round"/>
<path d="M88.6265 64.1484C97.1011 64.0772 105.552 63.7149 114.021 63.4229" stroke="black" stroke-width="5" stroke-linecap="round"/>
<path d="M27.1387 146.449C28.0567 164.053 29.5401 181.875 33.222 199.152C33.75 201.63 33.9594 195.298 33.9825 194.882" stroke="black" stroke-width="5" stroke-linecap="round"/>
<path d="M30.8237 166.981L55.0402 154.346" stroke="black" stroke-width="5" stroke-linecap="round"/>
<path d="M48.7943 144.44C47.4172 150.786 47.638 157.441 48.7824 163.826C48.9408 164.709 49.457 167.591 50.5027 168.169C50.7106 168.283 52.4902 166.955 52.7095 166.875C54.8203 166.104 57.1283 165.836 59.3534 165.63C60.8186 165.494 61.5894 164.98 62.5567 163.921C63.2153 163.2 64.1899 162.764 64.1702 161.643C64.1465 160.294 63.6287 158.977 63.1736 157.728C62.3015 155.335 61.4665 152.961 60.7533 150.515C60.0902 148.24 59.66 144.777 58.1432 142.827C57.2671 141.7 54.0792 141.874 52.9467 142.02C49.462 142.469 45.7505 143.192 42.3877 144.227" stroke="black" stroke-width="5" stroke-linecap="round"/>
<path d="M231.018 143.153C234.469 161.584 237.99 180.005 241.223 198.475" stroke="black" stroke-width="5" stroke-linecap="round"/>
<path d="M231.018 166.249C223.359 164.76 215.242 162.489 207.385 162.489" stroke="black" stroke-width="5" stroke-linecap="round"/>
<path d="M206.311 151.21C207.873 157.994 208.459 164.557 208.459 171.501C208.459 172.154 208.888 174.478 207.982 174.723C203.062 176.053 198.336 173.414 194.256 171.083C193.353 170.567 193.957 166.068 193.957 165.413C193.957 163.613 192.68 154.148 194.942 153.478C197.088 152.842 199.96 153.358 202.193 153.358C204.298 153.358 206.409 152.694 208.459 152.284" stroke="black" stroke-width="5" stroke-linecap="round"/>
<path d="M120.374 203.847C120.468 216.925 120.83 229.878 122.283 242.876C122.589 245.614 122.522 248.363 122.522 251.112" stroke="black" stroke-width="5" stroke-linecap="round"/>
<path d="M116.614 222.108C108.566 217.082 100.506 212.073 92.4441 207.069" stroke="black" stroke-width="5" stroke-linecap="round"/>
<path d="M86.536 199.55C87.5257 204.438 88.9805 209.045 90.2361 213.753C90.8462 216.041 89.9024 216.761 87.6401 216.946C82.5137 217.366 79.2634 214.551 74.6003 213.515C72.7004 213.092 73.1083 211.094 73.1083 209.516C73.1083 204.941 73.1083 200.365 73.1083 195.79C73.1083 190.534 81.5952 194.157 84.3876 194.716" stroke="black" stroke-width="5" stroke-linecap="round"/>
</svg>
