<svg width="302" height="243" viewBox="0 0 302 243" fill="none" xmlns="http://www.w3.org/2000/svg">
<path d="M95.6403 22.1956C97.5045 41.3706 92.9404 60.1316 88.1621 78.599C87.49 81.1967 78.1423 112.24 79.6699 112.568C84.8341 113.674 91.075 113.328 96.2107 113.392C122.158 113.712 148.069 112.521 173.971 111.11C196.716 109.872 219.445 108.237 242.226 107.815C244.324 107.776 248.895 108.372 251.288 107.688C254.33 106.819 250.893 82.6218 250.655 81.0073C247.408 58.9873 240.232 37.8564 236.078 16.0483C235.63 13.694 235.569 13.2219 233.036 13.3232C219.418 13.8679 205.862 14.109 192.223 14.2104C152.242 14.5077 112.668 18.4565 72.8254 21.0549" stroke="black" stroke-width="5" stroke-linecap="round"/>
<path d="M81.661 13.7258C83.9107 36.8732 78.4029 59.5208 72.6366 81.8142C71.8255 84.95 60.5452 122.425 62.3886 122.82C68.6205 124.156 76.1518 123.738 82.3493 123.815C113.662 124.201 144.93 122.763 176.188 121.061C203.635 119.565 231.064 117.592 258.554 117.082C261.086 117.036 266.603 117.755 269.491 116.929C273.161 115.88 269.013 86.6704 268.726 84.7213C264.808 58.1395 256.149 32.631 251.136 6.30492C250.595 3.46292 250.521 2.89296 247.465 3.01525C231.032 3.67282 214.672 3.96389 198.213 4.0863C149.965 4.44515 127.984 8.5292 79.9044 11.6659" stroke="black" stroke-width="5" stroke-linecap="round"/>
<path d="M120.737 38.166C112.434 39.7228 97.0058 45.0436 101.597 56.7981C104.155 63.3462 118.864 62.2183 120.42 55.5306C122.904 44.8497 121.731 33.603 109.329 33.603" stroke="black" stroke-width="5" stroke-linecap="round"/>
<path d="M113.892 51.855C115.49 55.8784 117.694 64.5927 121.877 66.6846" stroke="black" stroke-width="5" stroke-linecap="round"/>
<path d="M133.285 40.4476C141.3 38.4156 154.176 32.7111 162.374 37.0254C169.031 40.5291 171.919 29.1152 179.612 32.5891C187.606 36.1993 204.589 39.5283 211.996 33.6031" stroke="black" stroke-width="5" stroke-linecap="round"/>
<path d="M132.144 54.1365C142.44 54.1365 151.599 52.9198 161.613 51.9184C166.899 51.3898 171.096 48.1559 176.633 48.4328C184.327 48.8175 192.544 49.5735 200.589 49.5735" stroke="black" stroke-width="5" stroke-linecap="round"/>
<path d="M103.626 84.9365C100.692 88.8093 98.7241 91.5306 97.9219 96.344" stroke="black" stroke-width="5" stroke-linecap="round"/>
<path d="M104.766 81.5142C108.813 85.5612 112.856 89.355 117.314 92.9216" stroke="black" stroke-width="5" stroke-linecap="round"/>
<path d="M102.485 90.6401H113.892" stroke="black" stroke-width="5" stroke-linecap="round"/>
<path d="M139.984 81.2421C140.314 84.098 140.471 87.1109 141.358 89.8705C141.489 90.2791 141.411 89.0086 141.358 88.5827C141.015 85.8441 139.407 79.6086 141.615 77.2499C142.955 75.8188 147.124 76.5898 148.698 77.0782C152.633 78.2993 150.122 82.9896 147.368 84.0539C146.309 84.463 145.143 84.6041 144.019 84.6978C143.268 84.7603 145.497 84.9974 146.23 85.17C149.015 85.8252 151.396 86.8171 152.132 89.7631C153.623 95.7268 142.073 92.646 140.757 89.3553" stroke="black" stroke-width="5" stroke-linecap="round"/>
<path d="M199.867 75.4468C193.385 75.7114 183.557 79.1558 182.589 86.7366C182.262 89.2968 185.065 90.0622 187.075 90.4498C190.607 91.1306 193.587 90.8254 196.39 88.5824" stroke="black" stroke-width="5" stroke-linecap="round"/>
<path d="M219.571 76.6055C219.268 80.3466 219.157 84.0921 218.605 87.8094C218.087 91.2945 217.99 91.4132 218.025 87.8953C218.055 84.8775 217.681 80.7014 219.249 77.9577C220.54 75.6983 224.21 76.8334 225.967 77.7001C232.048 80.7001 232.446 86.2912 226.954 90.428C224.406 92.3476 217.213 96.4317 214.162 93.9909" stroke="black" stroke-width="5" stroke-linecap="round"/>
<path d="M36.6272 110.249C28.8671 109.527 21.2376 109.343 14.4558 113.977C5.99156 119.761 -0.42403 133.572 5.00524 143.277C8.53829 149.592 17.52 152.105 24.07 153.185C32.1095 154.512 47.2468 155.8 52.1929 147.136C58.8906 135.403 47.6647 113.272 35.2537 109.301C29.4509 107.444 27.1907 110.354 23.6775 114.369" stroke="black" stroke-width="5" stroke-linecap="round"/>
<path d="M165.979 174.926C158.156 175.343 150.472 176.068 142.827 177.967C134.472 180.043 117.843 184.441 117.68 195.887C117.574 203.268 126.919 208.324 132.624 210.701C140.199 213.857 149.062 214.818 157.15 213.382C171.467 210.841 176.749 197.489 171.146 184.605C165.774 172.253 154.43 167.241 141.846 166.097" stroke="black" stroke-width="5" stroke-linecap="round"/>
<path d="M271.486 136.148C258.927 134.678 247.053 137.262 237.477 145.893C232.667 150.229 225.29 157.698 226.424 164.991C227.863 174.241 242.583 174.626 249.315 174.834C259.562 175.151 270.19 174.008 280.054 171.139C286.839 169.165 300.31 164.536 298.955 154.853C297.702 145.896 286.134 140.113 278.877 137.26C271.937 134.533 265.215 134.268 257.948 133.794" stroke="black" stroke-width="5" stroke-linecap="round"/>
<path d="M267.955 177.94C267.955 191.913 267.985 205.85 269.72 219.732" stroke="black" stroke-width="5" stroke-linecap="round"/>
<path d="M155.384 213.775C155.384 219.994 155.381 226.216 154.796 232.415C154.541 235.116 154.38 238.012 153.03 240.263" stroke="black" stroke-width="5" stroke-linecap="round"/>
<path d="M28.9753 159.693C28.0576 172.999 23.1148 185.855 17.7915 197.953" stroke="black" stroke-width="5" stroke-linecap="round"/>
<path d="M162.395 123.333C161.457 131.469 159.792 139.545 158.979 147.677" stroke="black" stroke-width="5" stroke-linecap="round"/>
<path d="M129.51 148.104C149.014 148.051 168.517 147.677 188.02 147.677" stroke="black" stroke-width="5" stroke-linecap="round"/>
<path d="M26.9529 176.299C32.6414 176.299 38.1845 176.408 43.7116 174.873" stroke="black" stroke-width="4" stroke-linecap="round"/>
<path d="M38.7196 168.455C39.945 172.802 40.7428 177.106 41.5722 181.529C41.9261 183.417 42.2901 183.853 44.3058 183.767C47.4585 183.633 51.7663 183.737 51.4768 179.865C51.1851 175.963 50.7004 169.782 46.2868 168.178C44.9782 167.702 42.9391 168.098 41.592 168.098C39.4725 168.098 37.487 168.07 35.5105 168.811" stroke="black" stroke-width="4" stroke-linecap="round"/>
<path d="M157.1 226.219C159.174 226.219 165.352 225.609 163.281 225.506C158.052 225.244 152.808 225.483 147.572 225.109C144.153 224.865 142.605 224.453 140.282 222.297C139.001 221.107 137.461 220.136 136.063 219.087" stroke="black" stroke-width="4" stroke-linecap="round"/>
<path d="M126.079 210.886C126.407 214.458 126.435 218.001 126.435 221.583C126.435 223.588 127.402 223.023 129.407 223.01C131.548 222.995 133.787 223.038 135.904 222.653C136.457 222.553 136.075 221.581 136.063 221.147C135.976 218.138 135.114 215.533 134.636 212.669" stroke="black" stroke-width="4" stroke-linecap="round"/>
<path d="M269.419 196.624C262.996 197.527 256.301 197.958 250.165 200.19" stroke="black" stroke-width="4" stroke-linecap="round"/>
<path d="M248.738 185.57C248.968 190.289 249.791 194.921 250.422 199.595C250.591 200.845 250.596 200.903 249.412 200.903C246.768 200.903 244.191 200.646 241.567 200.348C239.571 200.121 238.794 200.623 238.755 198.446C238.696 195.226 238.426 192.127 237.705 188.977C237.47 187.953 236.083 184.988 238.022 184.877C240.842 184.716 243.778 184.5 246.599 184.5" stroke="black" stroke-width="4" stroke-linecap="round"/>
</svg>
