<svg width="145" height="146" viewBox="0 0 145 146" fill="none" xmlns="http://www.w3.org/2000/svg">
<g filter="url(#filter0_d_18_3145)">
<circle cx="72.8105" cy="69.8109" r="57" transform="rotate(-15 72.8105 69.8109)" fill="white"/>
</g>
<path d="M34.209 73.3614C33.4453 55.6484 33.9439 66.8645 33.1923 50.667C33.0825 48.3014 32.953 45.9366 32.8669 43.5699C32.8019 41.7837 31.7661 39.2132 33.2533 38.2217C34.2147 37.5808 39.0349 41.3978 39.4149 41.6381C43.3372 44.1178 47.2944 46.5466 51.1688 49.1012C53.8173 50.8475 56.4359 52.6367 58.8557 54.6935C59.397 55.1536 59.7252 55.8095 60.4825 55.6899C67.2963 54.614 73.7482 53.2891 80.7366 53.575C83.8907 53.704 89.8961 56.2081 92.3685 53.3106C96.888 48.0144 100.051 41.25 105.871 37.1236C108.482 35.2727 110.395 42.2763 110.996 43.753C113.541 50.0053 114.64 56.4714 115.47 63.1123" stroke="black" stroke-width="3.92798" stroke-linecap="round"/>
<path d="M39.6996 92.7612C39.4827 93.9678 39.149 95.1591 39.0489 96.381C38.9504 97.5827 39.4006 98.5893 40.0453 96.7267C40.1673 96.3743 40.375 95.7369 40.025 95.6082C38.9586 95.2162 37.0883 98.1804 37.056 98.2518C35.1537 102.467 44.9459 102.889 45.2309 98.7805C45.4466 95.6711 40.2972 90.5283 37.056 92.5172C33.8141 94.5066 39.1917 100.393 42.3432 99.4109C43.8521 98.9407 45.2394 97.3558 44.5802 95.6489C43.7298 93.4471 40.7131 93.1645 38.7845 93.2086C36.258 93.2665 29.1522 95.8123 34.0464 98.6789C35.7512 99.6774 39.5 100.865 39.3133 97.7841C39.2133 96.1341 37.4866 96.9134 36.4053 97.1537" stroke="black" stroke-width="3.92798" stroke-linecap="round"/>
<path d="M111.077 87.6373C108.729 87.3423 102.205 85.8476 103.98 87.4136C105.072 88.3769 107.619 87.2454 108.596 86.7019C112.422 84.5734 106.411 84.0253 104.855 84.0176C103.376 84.0103 95.494 86.4357 99.1199 88.8981C101.534 90.5375 112.19 93.8604 114.168 90.2809C115.829 87.2765 106.418 84.3469 104.448 85.7664C103.235 86.6407 104.142 89.6988 105.709 89.5895C107.121 89.491 110.779 87.5588 107.498 87.0679C106.746 86.9554 102.928 86.8086 103.39 87.2713" stroke="black" stroke-width="3.92798" stroke-linecap="round"/>
<path d="M55.8768 73.502C54.0267 74.7678 55.8476 75.6704 54.9225 73.8201" stroke="black" stroke-width="3.92798" stroke-linecap="round"/>
<path d="M84.5065 72.5463C85.0969 71.5801 86.5052 68.5451 85.7435 69.3829C85.4278 69.7302 84.8957 70.9915 85.3194 71.4152C85.653 71.7488 85.3359 70.6376 84.1884 70.6376" stroke="black" stroke-width="3.92798" stroke-linecap="round"/>
<path d="M68.6011 92.2695H72.7365" stroke="black" stroke-width="3.92798" stroke-linecap="round"/>
<path d="M54.6044 105.312C55.6396 107.24 56.415 110.675 59.0932 110.579C61.863 110.48 64.8132 109.409 67.1873 108.034C69.4659 106.715 72.2784 107.631 73.6201 109.695C74.3244 110.779 75.5182 108.764 76.4124 108.317C78.4993 107.273 81.2931 107.414 83.5345 107.716C87.4789 108.247 92.9861 111.15 95.6402 106.903" stroke="black" stroke-width="3.92798" stroke-linecap="round"/>
<defs>
<filter id="filter0_d_18_3145" x="0.796265" y="1.79688" width="144.028" height="144.028" filterUnits="userSpaceOnUse" color-interpolation-filters="sRGB">
<feFlood flood-opacity="0" result="BackgroundImageFix"/>
<feColorMatrix in="SourceAlpha" type="matrix" values="0 0 0 0 0 0 0 0 0 0 0 0 0 0 0 0 0 0 127 0" result="hardAlpha"/>
<feOffset dy="4"/>
<feGaussianBlur stdDeviation="7.5"/>
<feComposite in2="hardAlpha" operator="out"/>
<feColorMatrix type="matrix" values="0 0 0 0 0 0 0 0 0 0 0 0 0 0 0 0 0 0 0.25 0"/>
<feBlend mode="normal" in2="BackgroundImageFix" result="effect1_dropShadow_18_3145"/>
<feBlend mode="normal" in="SourceGraphic" in2="effect1_dropShadow_18_3145" result="shape"/>
</filter>
</defs>
</svg>
