<svg width="145" height="146" viewBox="0 0 145 146" fill="none" xmlns="http://www.w3.org/2000/svg">
<g filter="url(#filter0_d_18_3144)">
<circle cx="72.8102" cy="69.8109" r="57" transform="rotate(-15 72.8102 69.8109)" fill="white"/>
</g>
<path d="M48.8563 67.4042C54.5419 57.3663 60.1065 47.2366 66.1806 37.4246C66.3095 37.2163 67.7013 34.2001 68.4537 34.8136C70.5901 36.5557 71.9839 40.2303 73.3991 42.4621C76.5084 47.3657 79.9743 51.9981 83.9964 56.1926C85.4449 57.7031 86.2787 57.1858 88.2353 56.6687C92.5527 55.5277 96.9086 54.6136 101.367 54.2421C104.86 53.951 108.807 53.6346 112.302 54.1806C114.004 54.4466 111.252 59.2302 110.935 59.8786C108.088 65.7138 104.122 72.6442 98.3105 76.005C97.5854 76.4243 96.4153 76.1063 95.761 76.5425C95.6254 76.6329 95.9885 76.7767 96.1142 76.8804C97.2491 77.8166 97.2809 77.8287 98.633 79.0306C101.789 81.8359 105.173 84.7496 107.449 88.3532C108.929 90.6973 109.512 93.2551 109.645 95.9863C109.698 97.0752 109.844 98.539 109.184 99.5034C108.478 100.535 106.262 99.8615 105.468 99.5955C101.029 98.109 96.7264 95.938 92.505 93.9436C87.9096 91.7726 83.6983 89.0473 79.2199 86.7252C77.9963 86.0907 77.7207 88.7716 77.4384 89.459C76.1222 92.6635 74.198 95.6816 71.6943 98.0904C69.0062 100.677 64.5907 103.896 60.6209 103.896C59.9875 103.896 59.2786 103.989 58.655 103.896C56.9423 103.64 58.1746 99.3986 58.2557 98.8583C58.6754 96.0602 59.3856 92.315 59.8222 89.5511C59.9097 88.9971 60.684 84.2967 60.5287 83.1006C60.3642 81.8332 59.2801 82.5517 58.7164 82.8548C55.8724 84.3843 53.3572 86.0946 50.3 87.2627C49.1137 87.7159 35.487 91.4313 36.6003 88.1842C37.5991 85.2709 39.1707 82.4763 40.3477 79.6296C42.0159 75.5948 43.5398 71.5202 44.986 67.4042" stroke="black" stroke-width="3.92798" stroke-linecap="round"/>
<path d="M61.8496 80.6737C71.6026 79.6161 81.384 79.0938 91.1535 78.2471C91.9007 78.1823 92.6395 78.0906 93.3651 77.9092" stroke="black" stroke-width="3.92798" stroke-linecap="round"/>
<path d="M61.8495 62.7061C62.1036 64.088 62.5197 65.5482 62.6942 66.945C62.8058 67.8375 62.3867 64.9727 61.6499 64.4569C61.5903 64.4152 61.5496 64.9154 61.5116 64.887C61.3197 64.743 61.3385 64.2976 61.2966 64.0883" stroke="black" stroke-width="3.92798" stroke-linecap="round"/>
<path d="M77.8838 60.7704C77.79 61.1751 77.5241 63.5699 77.1927 62.0452C77.1166 61.6951 77.0339 61.2404 77.0544 61.8762C77.0693 62.3365 77.2731 62.5494 77.3155 61.8916C77.3699 61.0486 77.3309 58.5127 77.3309 59.3574C77.3309 60.2277 77.3309 61.0981 77.3309 61.9684C77.3309 62.2243 77.3187 60.9448 77.3309 61.2004C77.3861 62.3596 78.5583 66.0202 77.3309 63.2585" stroke="black" stroke-width="3.92798" stroke-linecap="round"/>
<path d="M67.3787 71.5508C69.3101 72.0557 71.4285 72.933 73.4606 72.933" stroke="black" stroke-width="3.92798" stroke-linecap="round"/>
<defs>
<filter id="filter0_d_18_3144" x="0.796021" y="1.79688" width="144.028" height="144.028" filterUnits="userSpaceOnUse" color-interpolation-filters="sRGB">
<feFlood flood-opacity="0" result="BackgroundImageFix"/>
<feColorMatrix in="SourceAlpha" type="matrix" values="0 0 0 0 0 0 0 0 0 0 0 0 0 0 0 0 0 0 127 0" result="hardAlpha"/>
<feOffset dy="4"/>
<feGaussianBlur stdDeviation="7.5"/>
<feComposite in2="hardAlpha" operator="out"/>
<feColorMatrix type="matrix" values="0 0 0 0 0 0 0 0 0 0 0 0 0 0 0 0 0 0 0.25 0"/>
<feBlend mode="normal" in2="BackgroundImageFix" result="effect1_dropShadow_18_3144"/>
<feBlend mode="normal" in="SourceGraphic" in2="effect1_dropShadow_18_3144" result="shape"/>
</filter>
</defs>
</svg>
