<svg width="145" height="145" viewBox="0 0 145 145" fill="none" xmlns="http://www.w3.org/2000/svg">
<g filter="url(#filter0_d_18_3146)">
<circle cx="72.7529" cy="68.7526" r="57" transform="rotate(-0.761934 72.7529 68.7526)" fill="white"/>
<path d="M27.5554 67.9924C26.9701 62.5294 24.2333 52.5392 29.9428 48.109C37.0832 42.5686 44.8659 54.9385 47.1562 59.1066C47.8537 60.376 48.4099 61.7057 48.9802 63.026C49.369 63.926 49.1867 65.2082 50.0707 65.7518C50.7047 66.1417 57.2043 62.7899 57.5436 62.6577C65.472 59.5695 73.2584 58.0277 81.7761 57.3742C83.2823 57.2587 82.5125 55.6649 82.336 54.7997C81.6357 51.367 81.2482 47.8686 80.923 44.393C80.2785 37.5048 80.9506 30.4104 85.7775 24.7079C86.5819 23.7576 87.9528 22.298 89.4548 22.2806C92.0685 22.2502 94.5549 25.2281 95.9855 26.8065C100.931 32.2629 104.432 38.8933 106.191 45.7519C106.886 48.4628 107.374 51.228 107.936 53.9638C108.116 54.8363 108.233 54.8667 107.662 55.3268" stroke="black" stroke-width="3" stroke-linecap="round"/>
<path d="M31.7433 68.635C31.6417 65.963 31.5263 63.2929 31.5935 60.6188C31.63 59.1699 31.5085 57.3825 32.706 56.243C34.5335 54.5038 36.2233 54.8611 37.42 56.8169C38.6606 58.8448 40.0944 60.9965 41.1186 63.116C41.3992 63.6966 41.2276 63.981 40.9354 64.4412" stroke="black" stroke-width="3" stroke-linecap="round"/>
<path d="M91.8421 55.8667C90.6627 51.8284 89.3656 47.7567 88.6822 43.6198C88.3594 41.6665 88.0709 39.4761 90.1001 38.2127C93.0774 36.3591 96.8225 40.8096 98.1198 42.6365C100.345 45.7696 101.357 49.4748 102.367 53.0436C102.626 53.9585 102.06 54.0298 101.237 54.4001" stroke="black" stroke-width="3" stroke-linecap="round"/>
<path d="M65.55 91.1809C70.9181 89.6951 75.8244 87.7867 80.6774 85.2567" stroke="black" stroke-width="3" stroke-linecap="round"/>
<path d="M68.4373 91.585C72.0511 93.5077 75.5375 93.9823 79.6462 94.1173" stroke="black" stroke-width="3" stroke-linecap="round"/>
<path d="M82.4194 85.9417C80.4367 89.4994 78.7448 93.1019 77.4035 96.8884" stroke="black" stroke-width="3" stroke-linecap="round"/>
<path d="M45.8163 83.7932C45.5519 86.6666 45.9493 89.0919 46.8751 91.88C47.0455 92.3932 48.3043 97.3156 50.1886 97.0083C51.88 96.7325 51.7955 93.7665 51.6981 92.8747C51.4662 90.7493 50.6008 88.6009 49.1697 86.8909C47.9722 85.4599 45.0489 83.4389 45.2704 86.642C45.3931 88.4164 46.7062 94.732 49.7006 94.4127C51.5325 94.2173 47.9898 87.2572 47.7188 86.7215C47.0032 85.3069 44.3554 80.6543 44.4175 85.1075C44.4424 86.8875 45.2492 93.035 48.1286 93.2702C49.8574 93.4113 45.8994 88.7556 45.7033 88.5415" stroke="black" stroke-width="3" stroke-linecap="round"/>
<path d="M96.2099 71.4578C95.9521 74.2848 95.1534 77.7535 96.0715 80.5627C96.9748 83.3268 97.5492 78.4667 97.5301 78.1385C97.3807 75.5663 96.9754 72.1456 95.5828 69.8218C94.6717 68.3015 92.634 70.9389 92.3043 71.4727C90.9928 73.5964 88.2428 84.8038 94.9216 81.7389C97.5286 80.5426 96.9789 77.3381 96.4919 75.2455C96.4206 74.9392 94.446 69.734 94.1803 70.0417C93.5213 70.8046 94.1458 73.2154 94.2741 73.9988C94.4783 75.2463 94.8041 78.806 96.9277 78.7487C102.119 78.6087 96.5717 66.9565 92.0385 71.3835C90.2015 73.1776 89.8471 76.0903 90.5309 78.3707C91.455 81.4526 94.5618 80.8262 96.5055 78.8212C97.7918 77.4944 100.363 72.6327 97.6426 71.3385C95.864 70.4923 93.4791 72.3309 92.0702 73.0265" stroke="black" stroke-width="3" stroke-linecap="round"/>
<path d="M69.2859 106.877C75.4098 107.335 81.4356 108.249 86.935 105.472" stroke="black" stroke-width="3" stroke-linecap="round"/>
</g>
<defs>
<filter id="filter0_d_18_3146" x="0.752808" y="0.75293" width="144" height="144" filterUnits="userSpaceOnUse" color-interpolation-filters="sRGB">
<feFlood flood-opacity="0" result="BackgroundImageFix"/>
<feColorMatrix in="SourceAlpha" type="matrix" values="0 0 0 0 0 0 0 0 0 0 0 0 0 0 0 0 0 0 127 0" result="hardAlpha"/>
<feOffset dy="4"/>
<feGaussianBlur stdDeviation="7.5"/>
<feComposite in2="hardAlpha" operator="out"/>
<feColorMatrix type="matrix" values="0 0 0 0 0 0 0 0 0 0 0 0 0 0 0 0 0 0 0.25 0"/>
<feBlend mode="normal" in2="BackgroundImageFix" result="effect1_dropShadow_18_3146"/>
<feBlend mode="normal" in="SourceGraphic" in2="effect1_dropShadow_18_3146" result="shape"/>
</filter>
</defs>
</svg>
