<svg width="145" height="146" viewBox="0 0 145 146" fill="none" xmlns="http://www.w3.org/2000/svg">
<g filter="url(#filter0_d_18_3142)">
<circle cx="72.8105" cy="69.8109" r="57" transform="rotate(-15 72.8105 69.8109)" fill="white"/>
</g>
<path d="M63.0514 67.0977C64.0263 73.0196 63.6818 80.8043 70.5334 82.4487C73.9169 83.2608 79.5896 84.5336 82.7885 82.5132C87.6214 79.4608 88.5935 72.3286 88.5935 67.0977" stroke="black" stroke-width="3.92798" stroke-linecap="round"/>
<path d="M42.7338 53.7462C42.167 57.21 41.8138 60.7184 40.9923 64.1307C40.3635 66.7428 41.7203 58.8057 41.9921 56.1327C42.2581 53.5167 41.1418 60.7307 41.1213 61.2927C41.0375 63.5973 40.63 68.4094 43.6046 69.2907C46.9102 70.2702 48.4797 63.8345 48.9259 61.8732C49.1996 60.6698 50.5916 51.595 46.6684 53.2624C42.8865 54.8697 40.9478 60.9135 41.0568 64.6467C41.1104 66.4822 42.8914 68.8008 44.7656 67.0655C47.2229 64.7902 47.7815 59.3193 47.5714 56.1972C47.3192 52.4501 45.5282 57.25 45.4106 58.1644C44.9067 62.0837 44.5666 66.9756 45.6364 70.8387C46.313 73.2822 49.7607 56.5844 45.6364 59.4867C43.6418 60.8903 41.5663 64.9857 41.2503 67.3557C40.9379 69.6992 46.2537 62.9445 46.4749 62.4537C46.5233 62.3461 48.3412 54.1494 46.1846 55.8747C44.4493 57.2629 44.322 60.4604 43.8948 62.4537" stroke="black" stroke-width="3.92798" stroke-linecap="round"/>
<path d="M101.945 51.4252C101.439 53.135 96.8432 64.9867 101.106 66.0667C103.767 66.7407 104.179 59.7229 103.945 58.5202C103.432 55.8891 94.6114 47.061 92.786 52.1992C91.5043 55.8067 92.783 64.7522 96.5915 66.8407C98.6729 67.9822 102.228 55.025 102.396 53.4892C102.664 51.0479 100.363 53.6746 99.9455 54.1987C98.0459 56.5847 96.3223 59.7671 95.9465 62.8417C95.7775 64.224 96.6904 65.2004 98.0105 64.2607C100.316 62.6193 100.824 58.8333 100.719 56.2627C100.715 56.1488 100.054 51.154 98.591 52.2637C97.1445 53.361 97.2257 57.737 97.2365 59.2297C97.2465 60.6069 98.836 65.022 99.623 61.8742" stroke="black" stroke-width="3.92798" stroke-linecap="round"/>
<path d="M42.1533 99.6074C52.5513 105.017 61.2386 108.487 73.1457 108.799C78.9042 108.949 83.6625 108.002 89.174 107.154" stroke="black" stroke-width="3.92798" stroke-linecap="round"/>
<path d="M31.1238 48.5218C32.5221 44.3489 33.5349 41.0892 35.1873 37.0408C35.9503 35.1714 37.4276 30.6588 39.3798 29.3008C40.2974 28.6624 44.2135 38.2736 44.7011 39.2015C46.4689 42.566 48.2195 42.0744 51.5704 41.5236C60.1893 40.1067 69.1446 40.1936 77.8219 40.9753C78.9997 41.0814 82.5506 42.1032 83.9495 41.5558C86.9597 40.3779 89.243 32.5611 90.7865 30.0103C94.6454 23.633 95.4822 29.7111 98.075 33.6868C100.591 37.5445 103.956 40.6642 107.17 43.8778" stroke="black" stroke-width="3.92798" stroke-linecap="round"/>
<path d="M96.14 113.539C92.9956 101.665 91.4153 89.8176 101.945 81.1599C104.564 79.0062 109.842 76.2538 113.426 76.6449C116.357 76.9645 118.678 83.9918 119.554 86.1909C120.541 88.6705 121.163 91.207 121.682 93.8019" stroke="black" stroke-width="3.92798" stroke-linecap="round"/>
<path d="M109.492 92.6406C106.571 93.4902 104.167 94.8549 102.977 97.8651C101.971 100.409 102.586 102.509 105.364 102.509C108.228 102.509 108.853 100.993 110.524 98.7036C113.417 94.738 107.551 95.3437 106.009 93.8016" stroke="black" stroke-width="3.92798" stroke-linecap="round"/>
<path d="M40.9923 100.186C42.4673 95.4663 45.6435 85.9775 39.8313 83.0292C37.4019 81.7969 34.4043 82.1907 31.7687 82.1907C29.8337 82.1907 27.8987 82.1907 25.9637 82.1907C24.6326 82.1907 24.3024 83.3517 22.9967 83.3517" stroke="black" stroke-width="3.92798" stroke-linecap="round"/>
<path d="M31.7042 92.6406C29.3388 93.1729 28.5096 93.4974 28.834 95.9301C29.143 98.2476 30.6823 100.768 33.1877 100.768C36.0408 100.768 36.0881 100.903 36.4773 98.1231C36.8194 95.6796 34.9687 95.5431 32.8652 95.5431" stroke="black" stroke-width="3.92798" stroke-linecap="round"/>
<defs>
<filter id="filter0_d_18_3142" x="0.796265" y="1.79688" width="144.028" height="144.028" filterUnits="userSpaceOnUse" color-interpolation-filters="sRGB">
<feFlood flood-opacity="0" result="BackgroundImageFix"/>
<feColorMatrix in="SourceAlpha" type="matrix" values="0 0 0 0 0 0 0 0 0 0 0 0 0 0 0 0 0 0 127 0" result="hardAlpha"/>
<feOffset dy="4"/>
<feGaussianBlur stdDeviation="7.5"/>
<feComposite in2="hardAlpha" operator="out"/>
<feColorMatrix type="matrix" values="0 0 0 0 0 0 0 0 0 0 0 0 0 0 0 0 0 0 0.25 0"/>
<feBlend mode="normal" in2="BackgroundImageFix" result="effect1_dropShadow_18_3142"/>
<feBlend mode="normal" in="SourceGraphic" in2="effect1_dropShadow_18_3142" result="shape"/>
</filter>
</defs>
</svg>
