<svg width="1440" height="1024" viewBox="0 0 1440 1024" fill="none" xmlns="http://www.w3.org/2000/svg">
<path d="M384.924 -315.999V547.088L-19.4326 708.983" stroke="black" stroke-width="0.566707" stroke-linecap="round" stroke-linejoin="round"/>
<path d="M450.416 -315.999V547.088L-19.4319 782.217" stroke="black" stroke-width="0.566707" stroke-linecap="round" stroke-linejoin="round"/>
<path d="M515.905 -315.999V547.088L-19.4331 904.238" stroke="black" stroke-width="0.566707" stroke-linecap="round" stroke-linejoin="round"/>
<path d="M581.402 -315.999V547.088L-19.1208 1147.87" stroke="black" stroke-width="0.566707" stroke-linecap="round" stroke-linejoin="round"/>
<path d="M646.892 -315.999V547.088L346.372 1147.87" stroke="black" stroke-width="0.566707" stroke-linecap="round" stroke-linejoin="round"/>
<path d="M712.383 -315.999V547.088L711.871 1147.87" stroke="black" stroke-width="0.566707" stroke-linecap="round" stroke-linejoin="round"/>
<path d="M777.88 -315.999V547.088L1077.36 1147.87" stroke="black" stroke-width="0.566707" stroke-linecap="round" stroke-linejoin="round"/>
<path d="M843.37 -315.999V547.088L1442.86 1147.87" stroke="black" stroke-width="0.566707" stroke-linecap="round" stroke-linejoin="round"/>
<path d="M908.867 -315.999V547.088L1444.43 904.798" stroke="black" stroke-width="0.566707" stroke-linecap="round" stroke-linejoin="round"/>
<path d="M974.357 -315.999V547.088L1444.43 782.53" stroke="black" stroke-width="0.566707" stroke-linecap="round" stroke-linejoin="round"/>
<path d="M1039.85 -315.999V547.088L1444.43 709.187" stroke="black" stroke-width="0.566707" stroke-linecap="round" stroke-linejoin="round"/>
<path d="M1105.35 -315.999V547.088L1444.43 660.296" stroke="black" stroke-width="0.566707" stroke-linecap="round" stroke-linejoin="round"/>
<path d="M1170.84 -315.999V547.088L1444.43 625.38" stroke="black" stroke-width="0.566707" stroke-linecap="round" stroke-linejoin="round"/>
<path d="M1236.33 -315.999V547.088L1444.43 599.193" stroke="black" stroke-width="0.566707" stroke-linecap="round" stroke-linejoin="round"/>
<path d="M1301.82 -315.999V547.088L1444.43 578.826" stroke="black" stroke-width="0.566707" stroke-linecap="round" stroke-linejoin="round"/>
<path d="M1367.31 -315.999V547.088L1444.43 562.537" stroke="black" stroke-width="0.566707" stroke-linecap="round" stroke-linejoin="round"/>
<path d="M1432.8 -315.999V547.088L1444.43 549.203" stroke="black" stroke-width="0.566707" stroke-linecap="round" stroke-linejoin="round"/>
<path d="M-19.4329 625.273L253.937 547.088V-316" stroke="black" stroke-width="0.566707" stroke-linecap="round" stroke-linejoin="round"/>
<path d="M319.428 -315.999V547.088L-19.4336 660.155" stroke="black" stroke-width="0.566707" stroke-linecap="round" stroke-linejoin="round"/>
<path d="M188.448 -315.999V547.088L-19.4341 599.116" stroke="black" stroke-width="0.566707" stroke-linecap="round" stroke-linejoin="round"/>
<path d="M122.95 -315.999V547.088L-19.4319 578.76" stroke="black" stroke-width="0.566707" stroke-linecap="round" stroke-linejoin="round"/>
<path d="M57.4594 -315.999V547.088L-19.4336 562.48" stroke="black" stroke-width="0.566707" stroke-linecap="round" stroke-linejoin="round"/>
<path d="M-19.4329 481.597H1444.43" stroke="black" stroke-width="0.566707" stroke-linecap="round" stroke-linejoin="round"/>
<path d="M-19.4329 416.1H1444.43" stroke="black" stroke-width="0.566707" stroke-linecap="round" stroke-linejoin="round"/>
<path d="M-19.4329 350.61H1444.43" stroke="black" stroke-width="0.566707" stroke-linecap="round" stroke-linejoin="round"/>
<path d="M-19.4329 285.12H1444.43" stroke="black" stroke-width="0.566707" stroke-linecap="round" stroke-linejoin="round"/>
<path d="M-19.4329 219.623H1444.43" stroke="black" stroke-width="0.566707" stroke-linecap="round" stroke-linejoin="round"/>
<path d="M-19.4329 154.133H1444.43" stroke="black" stroke-width="0.566707" stroke-linecap="round" stroke-linejoin="round"/>
<path d="M-19.4329 88.6427H1444.43" stroke="black" stroke-width="0.566707" stroke-linecap="round" stroke-linejoin="round"/>
<path d="M-19.4329 23.1449H1444.43" stroke="black" stroke-width="0.566707" stroke-linecap="round" stroke-linejoin="round"/>
<path d="M1444.43 835.226H-19.4336" stroke="black" stroke-width="0.566707" stroke-linecap="round" stroke-linejoin="round"/>
<path d="M1444.43 784.604H-19.4336" stroke="black" stroke-width="0.566707" stroke-linecap="round" stroke-linejoin="round"/>
<path d="M1444.43 744.893H-19.4336" stroke="black" stroke-width="0.566707" stroke-linecap="round" stroke-linejoin="round"/>
<path d="M1444.43 901.958H-19.4336" stroke="black" stroke-width="0.566707" stroke-linecap="round" stroke-linejoin="round"/>
<path d="M1444.43 712.901H-19.4336" stroke="black" stroke-width="0.566707" stroke-linecap="round" stroke-linejoin="round"/>
<path d="M1444.43 686.581H-19.4336" stroke="black" stroke-width="0.566707" stroke-linecap="round" stroke-linejoin="round"/>
<path d="M1444.43 552.974H-19.4336" stroke="black" stroke-width="0.566707" stroke-linecap="round" stroke-linejoin="round"/>
<path d="M1444.43 547.088H-19.4336" stroke="black" stroke-width="0.566707" stroke-linecap="round" stroke-linejoin="round"/>
<path d="M1444.43 566.484H-19.4336" stroke="black" stroke-width="0.566707" stroke-linecap="round" stroke-linejoin="round"/>
<path d="M1444.43 559.413H-19.4336" stroke="black" stroke-width="0.566707" stroke-linecap="round" stroke-linejoin="round"/>
<path d="M1444 623H-19" stroke="black" stroke-width="0.566707" stroke-linecap="round" stroke-linejoin="round"/>
<path d="M1444.43 664.543H-19.4336" stroke="black" stroke-width="0.566707" stroke-linecap="round" stroke-linejoin="round"/>
<path d="M1444.43 993.961H-19.4336" stroke="black" stroke-width="0.566707" stroke-linecap="round" stroke-linejoin="round"/>
<path d="M1444.43 582.957H-19.4336" stroke="black" stroke-width="0.566707" stroke-linecap="round" stroke-linejoin="round"/>
<path d="M1444.43 574.295H-19.4336" stroke="black" stroke-width="0.566707" stroke-linecap="round" stroke-linejoin="round"/>
<path d="M1444.43 603.469H-19.4336" stroke="black" stroke-width="0.566707" stroke-linecap="round" stroke-linejoin="round"/>
<path d="M1444.43 592.62H-19.4336" stroke="black" stroke-width="0.566707" stroke-linecap="round" stroke-linejoin="round"/>
<path d="M1444.43 645.827H-19.4336" stroke="black" stroke-width="0.566707" stroke-linecap="round" stroke-linejoin="round"/>
</svg>
