<svg width="121" height="72" viewBox="0 0 121 72" fill="none" xmlns="http://www.w3.org/2000/svg">
<path fill-rule="evenodd" clip-rule="evenodd" d="M87.2405 68.4755C98.0435 68.736 109.083 68.215 119.413 71.9091C120.028 72.127 120.706 71.8097 120.928 71.194C121.146 70.5783 120.829 69.901 120.213 69.6784C109.642 65.8991 98.3514 66.3727 87.2974 66.1074C86.6438 66.0885 86.0992 66.6095 86.085 67.263C86.066 67.9166 86.587 68.4565 87.2405 68.4755Z" fill="black"/>
<path fill-rule="evenodd" clip-rule="evenodd" d="M86.2697 52.7908C89.637 49.6925 93.3122 47.3714 97.7547 46.221C98.3893 46.0571 98.7681 45.4106 98.6071 44.7779C98.4413 44.1451 97.7925 43.7648 97.1626 43.9287C92.3319 45.179 88.3299 47.6806 84.6689 51.0475C84.1858 51.4898 84.1527 52.2396 84.5979 52.7207C85.0383 53.2015 85.7914 53.2332 86.2697 52.7908Z" fill="black"/>
<path fill-rule="evenodd" clip-rule="evenodd" d="M76.9019 18.9643C78.4459 13.6718 81.4865 9.53153 86.1468 6.54165C86.6961 6.18882 86.8572 5.45568 86.502 4.90582C86.1515 4.35597 85.4174 4.19587 84.868 4.54871C79.7104 7.85922 76.3383 12.4409 74.6286 18.3008C74.4439 18.9279 74.8086 19.5862 75.4338 19.769C76.0637 19.9523 76.722 19.5914 76.9019 18.9643Z" fill="black"/>
<path fill-rule="evenodd" clip-rule="evenodd" d="M23.6921 11.7817C22.7733 12.8629 21.9492 14.028 21.2483 15.2684C20.9357 15.8206 20.3863 16.9942 20.3011 18.0006C20.2064 19.0729 20.571 19.9775 21.5087 20.4539C22.7543 21.0857 23.7489 21.0199 24.5162 20.6377C25.255 20.2706 25.8328 19.5493 26.1975 18.5822C26.8937 16.7337 26.7895 13.9087 26.4248 12.2965C27.4051 11.2849 28.4802 10.3675 29.6311 9.55196C38.2034 3.47796 50.7777 5.71765 60.4535 14.7995C63.8397 17.9793 65.4689 24.6572 66.3167 31.8621C67.6381 43.0805 66.885 55.6102 66.7808 59.2811C66.7571 60.1876 66.8424 60.7256 66.8897 60.8331C67.1123 61.3617 67.5054 61.499 67.7801 61.5511C68.178 61.6222 68.4952 61.5464 68.751 61.4138C69.0967 61.2319 69.3809 60.9118 69.5135 60.4178C69.5846 60.145 69.6035 59.7652 69.594 59.3602C69.5845 59.0794 69.5277 58.7725 69.5845 58.5712C69.9539 57.282 70.3991 56.0232 70.8349 54.7553C72.2888 50.4934 74.1691 46.4994 76.2577 42.5103C82.8929 29.8347 89.3102 16.4415 100.189 6.78421C100.677 6.35086 100.724 5.60162 100.288 5.11286C99.8575 4.62409 99.1092 4.57956 98.6166 5.01339C87.52 14.8616 80.9274 28.4853 74.1596 41.4119C72.3836 44.8053 70.7543 48.2035 69.3998 51.7579C69.5372 45.4703 69.4851 36.7668 68.3342 29.066C67.3112 22.2171 65.3647 16.1645 62.0731 13.0732C51.4738 3.12417 37.6493 0.965959 28.2624 7.62013C27.2583 8.33244 26.3017 9.11579 25.4113 9.96544C20.5 1.09716 9.98592 -2.45728 0.693756 1.78434C0.0970116 2.05572 -0.163467 2.75856 0.106488 3.35293C0.38118 3.94731 1.08209 4.2097 1.67884 3.93832C10.0522 0.116316 19.5481 3.52722 23.6921 11.7817ZM24.3788 14.7507C23.9952 15.2925 23.64 15.8543 23.3085 16.4349C23.1332 16.7465 22.8301 17.3456 22.7022 17.932C22.6738 18.0693 22.6691 18.2843 22.6691 18.3838C22.9959 18.5448 23.2516 18.6225 23.46 18.5178C23.7205 18.389 23.8531 18.0859 23.981 17.7473C24.3031 16.8976 24.4072 15.7714 24.3788 14.7507Z" fill="black"/>
</svg>
