<svg width="209" height="21" viewBox="0 0 209 21" fill="none" xmlns="http://www.w3.org/2000/svg">
<path fill-rule="evenodd" clip-rule="evenodd" d="M114.545 9.42787C90.4438 9.937 66.3423 11.1961 42.342 13.2463C29.2333 14.3659 14.0087 14.2317 1.29139 18.0475C0.289551 18.3486 0.489378 19.2656 0.511276 19.3559C0.555072 19.5448 0.738471 20.1716 1.54049 20.2017C1.60344 20.2044 2.0332 20.1497 2.20017 20.1278C5.94474 19.6351 9.67836 19.0603 13.4257 18.5949C26.3701 16.9827 39.3474 15.7674 52.3467 14.6998C69.6023 13.2819 87.0031 12.5237 104.305 11.9352C113.779 11.6094 123.477 12.0392 132.983 11.374C136.465 11.3549 139.953 11.3522 143.44 11.3631C158.021 11.4151 172.586 11.9681 187.148 12.7263C191.829 12.9699 195.404 13.2327 199.992 13.4106C201.735 13.479 204.503 13.5256 206.424 13.5557C206.703 13.5611 207.404 13.5666 207.708 13.5693C207.749 13.5748 207.79 13.5748 207.831 13.5748C207.979 13.572 208.053 13.5638 208.066 13.5611C209.109 13.4078 209.013 12.4279 208.983 12.2746C208.978 12.2417 208.825 11.4123 207.932 11.3822C207.798 11.3768 206.832 11.3713 206.46 11.3659C204.552 11.3358 201.806 11.2892 200.076 11.2235C195.5 11.0456 191.933 10.7828 187.261 10.5392C172.665 9.78099 158.065 9.22533 143.448 9.17332C141.74 9.16785 140.035 9.1651 138.332 9.16784C138.206 9.0036 138.012 8.853 137.703 8.77362C137.421 8.69972 135.395 8.62861 134.612 8.56292C128.957 8.10032 129.124 8.11948 122.899 7.739C113.472 7.16144 112.038 7.02999 102.236 6.78637C90.2385 6.48801 78.2384 6.40592 66.2382 6.39771C83.472 5.56558 100.821 5.67779 118.03 5.42597C125.812 5.31374 133.591 5.1112 141.373 5.17142C144.045 5.19332 146.714 5.29188 149.385 5.32472C149.938 5.33294 151.359 5.42873 151.564 5.3822C152.243 5.23165 152.388 4.72524 152.429 4.47889C152.451 4.33655 152.549 3.49349 151.539 3.19787C147.031 1.88399 138.713 1.93598 134.333 1.67594C109.807 0.225196 85.2321 0.630302 60.6953 1.66772C50.5647 2.09473 40.467 2.70518 30.3775 3.69059C26.8491 4.03275 23.3126 4.32563 19.798 4.78549C19.2286 4.8594 17.9449 4.9661 17.3235 5.07833C17.0033 5.13855 16.7761 5.22614 16.6693 5.28362C16.1711 5.56556 16.0863 5.98164 16.0835 6.26084C16.0808 6.4634 16.1328 7.22161 17.1401 7.41596C27.3856 9.42236 38.5318 8.63954 48.832 8.61217C66.616 8.56837 84.4027 8.53274 102.181 8.97618C108.195 9.12673 111.047 9.23352 114.545 9.42787ZM119.667 3.21157C100.046 2.60116 80.4036 3.0254 60.7857 3.85479C50.6961 4.2818 40.6394 4.8895 30.591 5.86943C28.9897 6.02546 27.3911 6.17051 25.7926 6.32653C33.4651 6.87672 41.373 6.44426 48.8266 6.42237L53.9425 6.41141C53.9015 6.30739 53.8741 6.19517 53.8659 6.08021C53.8193 5.47801 54.271 4.94971 54.8732 4.90318C75.8186 3.31283 97.0105 3.54274 118 3.23616C118.555 3.22795 119.111 3.21978 119.667 3.21157Z" fill="#35312B"/>
</svg>
