<svg width="434" height="148" viewBox="0 0 434 148" fill="none" xmlns="http://www.w3.org/2000/svg">
<path d="M6.11748 118.057C5.02254 87.8365 5.07506 57.6024 5.0776 27.3676C83.4888 21.6071 164.844 17.4403 243.306 13.4996C294.182 10.9445 345.23 9.38728 395.694 2.0619C409.947 -0.00706077 415.524 50.4185 417.761 59.3662C419.472 66.2118 438.446 122.289 428.159 127.877C417.809 133.499 392.321 132.205 382.755 132.845C339.295 135.754 295.811 138.701 252.318 141.048C180.691 144.913 108.428 148.238 36.7337 143.936C29.8341 143.522 17.8043 142.852 9.93006 141.048C8.95407 140.824 7.75042 140.699 7.15727 139.893C2.84063 134.022 6.38132 125.339 6.11748 118.057Z" fill="#4EF35F" fill-opacity="0.5"/>
<path d="M5.07768 25.5151C5.07768 56.3674 5.00017 87.2193 6.11748 118.057C6.38132 125.339 2.84063 134.022 7.15727 139.893C7.75042 140.699 8.95407 140.824 9.93006 141.048C17.8043 142.852 29.8341 143.522 36.7337 143.936C108.428 148.238 180.691 144.913 252.318 141.048C295.811 138.701 339.295 135.754 382.755 132.845C392.321 132.205 417.809 133.499 428.159 127.877C438.446 122.289 419.472 66.2118 417.761 59.3662C415.524 50.4185 409.947 -0.00706086 395.694 2.0619C345.23 9.38728 294.182 10.9445 243.306 13.4996C163.817 17.4918 81.3584 21.7162 2 27.5947" stroke="black" stroke-width="3.92798" stroke-linecap="round"/>
</svg>
