<svg width="431" height="148" viewBox="0 0 431 148" fill="none" xmlns="http://www.w3.org/2000/svg">
<path d="M2.07768 25.5151C2.07768 56.3674 2.00017 87.2193 3.11748 118.057C3.38132 125.339 -0.15937 134.022 4.15727 139.893C4.75042 140.699 5.95407 140.824 6.93006 141.048C14.8043 142.852 26.8341 143.522 33.7337 143.936C105.428 148.238 177.691 144.913 249.318 141.048C292.811 138.701 336.295 135.754 379.755 132.845C389.321 132.205 414.809 133.499 425.159 127.877C435.446 122.289 416.472 66.2118 414.761 59.3662C412.524 50.4185 406.947 -0.00706085 392.694 2.0619C342.23 9.38728 291.182 10.9445 240.306 13.4996C160.817 17.4918 81.4361 21.7162 2.07768 27.5947" stroke="black" stroke-width="3.92798" stroke-linecap="round"/>
</svg>
