<svg width="492" height="153" viewBox="0 0 492 153" fill="none" xmlns="http://www.w3.org/2000/svg">
<path d="M63.1246 110.552C60.489 86.4543 58.0841 62.3321 55.6021 38.2182C62.5535 37.1863 68.8628 36.2333 73.5226 35.6866C193.377 21.6247 312.645 4.91752 433.523 3.33742C444.914 3.18852 470.792 -2.41973 478.812 10.5005C492.538 32.6156 490.645 66.2181 487.13 90.5647C485.397 102.569 481.681 144.108 463.792 144.634C393.969 146.688 323.961 145.304 254.1 146.829C212.082 147.747 170.084 148.744 128.054 148.909C112.179 148.971 88.7854 152.482 72.9449 147.753C62.6578 144.683 63.6796 115.626 63.1246 110.552Z" fill="#4EF35F" fill-opacity="0.5"/>
<path d="M54.5752 28.2925C57.4285 55.7119 60.1273 83.1478 63.1246 110.552C63.6796 115.626 62.6578 144.683 72.9449 147.753C88.7854 152.482 112.179 148.971 128.054 148.909C170.084 148.744 212.082 147.747 254.1 146.829C323.961 145.304 393.969 146.688 463.792 144.634C481.681 144.108 485.397 102.569 487.13 90.5647C490.645 66.2181 492.538 32.6156 478.812 10.5005C470.792 -2.41973 444.914 3.18852 433.523 3.33742C312.645 4.91752 193.377 21.6247 73.5226 35.6866C50.7232 38.3615 -11.5671 50.7635 4.66502 34.5313" stroke="black" stroke-width="3.92798" stroke-linecap="round"/>
</svg>
