<svg width="443" height="160" viewBox="0 0 443 160" fill="none" xmlns="http://www.w3.org/2000/svg">
<path d="M21.6126 123.891C22.4514 90.5079 27.7696 57.0218 32.8176 23.8902C112.779 23.905 192.874 24.0075 272.824 24.4905C322.028 24.7878 371.221 25.9915 419.815 34.3301C426.602 35.4947 440.758 34.6802 440.097 44.3706C437.587 81.1901 438.204 119.166 431.864 155.618C431.51 157.653 431.497 157.212 429.053 157.325C425.351 157.497 409.945 157.426 409.474 157.426C371.381 157.426 333.303 157.048 295.214 156.522C207.697 155.313 118.271 158.895 33.0587 135.538C24.4867 133.188 21.3774 133.254 21.6126 123.891Z" fill="#4EF35F" fill-opacity="0.5"/>
<path d="M36.0708 2C30.3367 42.2289 22.6366 83.1368 21.6126 123.891C21.3774 133.254 24.4867 133.188 33.0587 135.538C118.271 158.895 207.697 155.313 295.214 156.522C333.303 157.048 371.381 157.426 409.474 157.426C409.945 157.426 425.351 157.497 429.053 157.325C431.497 157.212 431.51 157.653 431.864 155.618C438.204 119.166 437.587 81.1901 440.097 44.3706C440.758 34.6802 426.602 35.4947 419.815 34.3301C371.221 25.9915 322.028 24.7878 272.824 24.4905C184.755 23.9584 96.5092 23.8881 8.45969 23.8881C-2.19135 23.8881 3.53989 83.4885 3.53989 92.7654C3.53989 108.897 3.53989 125.029 3.53989 141.16" stroke="black" stroke-width="3.92798" stroke-linecap="round"/>
</svg>
