<svg width="441" height="198" viewBox="0 0 441 198" fill="none" xmlns="http://www.w3.org/2000/svg">
<path d="M421.613 50.8824C290.107 44.3253 147.543 45.0322 15.6001 45.7771C14.185 65.9997 15.3414 86.4298 15.4426 107.777C15.5413 128.599 14.1868 148.076 7.02507 167.713C5.47923 171.952 0.302252 176.587 2.56278 180.492C4.84022 184.426 31.5273 179.474 36.03 179.173C62.4295 177.413 91.0023 182.292 117.163 183.838C181.325 187.632 245.521 190.965 309.751 193.372C338.681 194.456 368.094 196.226 397.07 194.69C404.412 194.301 412.168 195.091 412.891 186.78C414.216 171.547 416.278 156.727 419.077 141.65C424.143 114.366 433.347 87.6728 437.941 60.4155C439.731 49.7932 429.81 51.2911 421.613 50.8824Z" fill="#4EF35F" fill-opacity="0.5"/>
<path d="M9.5 45.8116C143.141 45.0557 288.077 44.2241 421.613 50.8824C429.81 51.2911 439.731 49.7932 437.941 60.4155C433.347 87.6728 424.143 114.366 419.077 141.65C416.278 156.727 414.216 171.547 412.891 186.78C412.168 195.091 404.412 194.301 397.07 194.69C368.094 196.226 338.681 194.456 309.751 193.372C245.521 190.965 181.325 187.632 117.163 183.838C91.0023 182.292 62.4295 177.413 36.03 179.173C31.5273 179.474 4.84022 184.426 2.56278 180.492C0.302252 176.587 5.47923 171.952 7.02507 167.713C14.1868 148.076 15.5413 128.599 15.4426 107.777C15.2683 71.0059 11.9631 36.9551 24.0629 2" stroke="black" stroke-width="3.92798" stroke-linecap="round"/>
</svg>
