<svg width="145" height="146" viewBox="0 0 145 146" fill="none" xmlns="http://www.w3.org/2000/svg">
<g filter="url(#filter0_d_18_3148)">
<circle cx="72.8105" cy="69.8109" r="57" transform="rotate(-15 72.8105 69.8109)" fill="white"/>
</g>
<path d="M33.4429 62.1167C42.5418 53.4649 52.3466 45.0595 60.2033 35.198C61.8035 33.1895 63.2923 31.2228 65.2176 29.4976C67.1739 27.7445 68.1664 27.5635 70.0207 29.5503C80.8324 41.1343 93.5898 50.8938 106.282 60.3221C108.225 61.7654 110.02 63.1627 111.718 64.8614C112.457 65.6003 114.442 66.2074 113.671 67.2893C107.482 75.9805 102.316 85.2958 95.5144 93.5747C90.6898 99.4473 84.7595 104.199 79.627 109.726C77.2245 112.313 72.8582 105.846 71.3403 104.184C67.3676 99.8345 63.8182 95.6266 59.306 91.7801C52.7947 86.2295 45.7698 81.2304 39.1434 75.7872C35.8397 73.0735 33.0638 69.9619 31.1733 66.1809C29.3875 62.6094 34.0683 60.0662 36.2931 57.8414" stroke="black" stroke-width="3.92798" stroke-linecap="round"/>
<path d="M56.7196 64.4922C53.2199 65.6915 46.1925 67.4208 50.7025 72.1456C51.4472 72.9257 52.606 73.8363 53.7111 73.3068C55.797 72.3073 60.2942 67.8166 57.0363 65.759C55.9071 65.0457 56.7125 68.287 56.7196 68.3453C57.0526 71.0506 57.2829 73.7632 57.5641 76.4737C57.8791 79.5089 59.5917 77.1209 60.995 75.8931" stroke="black" stroke-width="3.92798" stroke-linecap="round"/>
<path d="M69.5457 66.3926C66.8727 69.2114 67.3974 72.0743 68.2261 75.8141C68.5632 77.3351 69.7135 83.254 72.1848 83.8634C74.0149 84.3146 74.1765 78.7498 74.2961 77.7935" stroke="black" stroke-width="3.92798" stroke-linecap="round"/>
<path d="M76.6711 80.643C77.3028 78.4913 78.5644 69.7206 81.2104 68.3976C82.1502 67.9277 83.3865 74.8652 83.48 75.4176C84.072 78.9155 83.4434 81.7317 84.5884 76.2357C85.1613 73.4859 86.0949 70.7109 88.4679 68.9782C90.2046 67.7102 94.6315 66.2885 96.4116 68.3448C98.1981 70.4087 97.5728 74.7528 97.5728 77.2386C97.5728 79.8297 97.5728 77.9571 97.5728 76.8427" stroke="black" stroke-width="3.92798" stroke-linecap="round"/>
<defs>
<filter id="filter0_d_18_3148" x="0.796265" y="1.79688" width="144.028" height="144.028" filterUnits="userSpaceOnUse" color-interpolation-filters="sRGB">
<feFlood flood-opacity="0" result="BackgroundImageFix"/>
<feColorMatrix in="SourceAlpha" type="matrix" values="0 0 0 0 0 0 0 0 0 0 0 0 0 0 0 0 0 0 127 0" result="hardAlpha"/>
<feOffset dy="4"/>
<feGaussianBlur stdDeviation="7.5"/>
<feComposite in2="hardAlpha" operator="out"/>
<feColorMatrix type="matrix" values="0 0 0 0 0 0 0 0 0 0 0 0 0 0 0 0 0 0 0.25 0"/>
<feBlend mode="normal" in2="BackgroundImageFix" result="effect1_dropShadow_18_3148"/>
<feBlend mode="normal" in="SourceGraphic" in2="effect1_dropShadow_18_3148" result="shape"/>
</filter>
</defs>
</svg>
